<svg t="1734450976254" class="icon" viewBox="0 0 1024 1024" version="1.1" xmlns="http://www.w3.org/2000/svg" p-id="11310" width="200" height="200"><path d="M170.666667 234.666667a149.333333 149.333333 0 1 1 191.530666 143.274666 234.752 234.752 0 0 0 224.469334 166.058667h14.08a149.376 149.376 0 0 1 295.253333 32 149.333333 149.333333 0 0 1-295.253333 32h-14.08a298.154667 298.154667 0 0 1-234.666667-113.92v149.333333A149.376 149.376 0 0 1 320 938.666667a149.333333 149.333333 0 0 1-32-295.253334V380.586667A149.376 149.376 0 0 1 170.666667 234.666667z" p-id="11311"></path></svg>